<?xml version="1.0" encoding="utf-8"?>
<!-- Generator: Adobe Illustrator 24.3.0, SVG Export Plug-In . SVG Version: 6.00 Build 0)  -->
<svg version="1.1" id="Ebene_1" xmlns="http://www.w3.org/2000/svg" xmlns:xlink="http://www.w3.org/1999/xlink" x="0px" y="0px"
	 viewBox="0 0 807.6 191.1" style="enable-background:new 0 0 807.6 191.1;" xml:space="preserve">
<style type="text/css">
	.st0{fill:#163B3C;}
	.st1{fill:#FFFFFF;}
</style>
<g>
	<g>
		<path class="st0" d="M90.9,7.3c12.5,1.7,23.2,7,32,15.9c8.3,8.4,12.5,17.5,12.5,27.2c0,15.1-11.7,32.3-35.1,51.8l-1.3-0.2
			c-2.3,2.9-4.2,5.6-5.8,8.1c-3.4,1.4-7.6,4.5-12.7,9.2h-1.8c-5.7,3.5-13.5,9-23.5,16.7h-1.6l-8.7,5.2l-1.3-0.2
			c-10.5,4.6-21.6,8.7-33.3,12.3l-2-2.5C8.7,144.4,32,99.3,78.1,15.4h0.5c2.1,0,4.6,1.3,7.6,3.8c3.5,3,6.3,6.8,8.5,11.4
			c-5.4,8.4-11,15.7-16.8,21.7H77c-1.2,0-2.4,1-3.6,2.9c-2.2,3.3-3.7,5.3-4.5,6.2l0.7,1.1v0.7c0,1.3-1.3,3.5-3.9,6.6
			c-2.6,3.1-4.1,6-4.4,8.8l0.2,1.4l-2.2-0.4l-2.4,10c-3.7,4.2-7.1,9-10,14.3l-1.1-0.2c-2.8,5.3-5.8,10.1-9,14.5l-4.2,1.4l1.3,1.3
			c-1.4,2.2-2.2,4-2.2,5.6c0,0.6,0.2,1.3,0.5,2c-3.6,1.8-6.7,5.4-9.2,10.7l1.3,1.1l2.4-2l1.3,0.5c3.6-2.3,6.9-5.2,10-8.9l1.1,0.2
			l2.7-3.1c10.6-5.8,21.2-13.8,31.7-23.9c7.2-6.8,16.8-17,28.6-30.8c4.9-5.8,9-12.8,12.3-21c3.1-7.7,4.7-14.4,4.7-19.9
			c0-4.5-1.8-8.1-5.5-10.9c-3.7-2.8-9.7-5.4-18-8l-2.5,0.7l-6.7-1.8l0.4-0.4c-0.1,0-1.1,0.7-2.9,2c-2.9,0.2-4.8,0.4-5.8,0.4h-3.8
			c-4.1,0-6.9,0.3-8.5,0.9l-4.5-0.7l-2.7,2h-1.6L52.5,18l-2.7-1.1c-2.7,1.2-5.9,2.2-9.6,2.9c-3.3,0.6-5.2,1.2-6,1.8L30.6,21
			c-1.2,0.8-2.6,1.3-4.2,1.3c-2.2,0-4.3-1.2-6.4-3.6c-2.1-2.4-3.2-5.3-3.2-8.7c0-0.6,0.4-3.1,1.3-7.6c1.9,1,4.6,1.4,8.1,1.4
			c0.4,0,0.9-0.1,1.6-0.2c0.7,0,1.3,0,1.6,0c0.7,0,1.3,0.1,1.8,0.2l10.1,0.5l0.9-0.7l3.3,0.7c2.4-0.2,4.4-0.4,6-0.4
			C61.8,4,74.9,5.1,90.9,7.3z"/>
		<path class="st0" d="M176,101.2c-18.6,9.9-30.7,18-36.2,24.3c-2.1,0.5-4.4,2-7,4.5c-2.6,2.5-4.7,3.8-6.2,3.8
			c-1.2,0-2.4-0.4-3.6-1.1c-1.8-2.4-2.7-5.5-2.7-9.2c0-3.5,1.7-10.4,5.1-20.8c10.4-22.4,21.1-38.3,32-47.6c5.5,2.3,9.6,5.4,12.1,9.4
			c-0.4,1.4-3.4,5.1-9,11c-0.6,1.1-2.5,3.7-5.6,7.8c-2.1,2.8-3.3,5.2-3.6,7.2c-2.1,0.2-3.7,1.6-4.9,4c-1.6,3.3-2.8,5.3-3.8,6.2
			l0.4,0.5c-0.7,1.1-2.5,3.2-5.4,6.3c-1.9,2.1-2.9,4-2.9,6v0.5c-3.5,2.3-5.4,5.6-5.8,10l1.1,0.7c21.2-15.7,35.5-24.9,42.7-27.5h0.7
			c1.1,0,2,0.8,2.7,2.4V101.2z M197,30.6c0.4,0.8,0.5,1.7,0.5,2.5c0,2.9-1.3,4.3-3.8,4.3h-0.5c-0.6,0-1.5-0.1-2.6-0.4
			c-1.1-0.2-2-0.4-2.4-0.4c-1.8,0-3.2,0.8-4.2,2.5l-1.1,0.4c-1-0.2-2-0.7-3-1.3c-1-0.6-1.7-0.9-1.9-0.9c-0.8,0-1.4,0.8-1.6,2.3
			c-0.7,0.3-1.8,0.4-3.1,0.4h-0.9c-0.6,0-1.2,0-1.8,0c-0.2,0-1.1,0-2.5,0l-1.1-0.5c6-11.6,13.2-18.8,21.4-21.7
			c1.7,1,3.3,2.8,4.7,5.6C194.8,27.3,196.1,29.7,197,30.6z"/>
		<path class="st0" d="M239.5,59.8c-4.7,10-8.8,15.7-12.3,17.2c-1.4,0.6-2.6,1.7-3.5,3.3c-0.9,1.6-1.8,2.6-2.8,3l-1.1-0.5
			c-5.9,6.9-10.3,10.7-13,11.6v-0.9c0-4.6,0.8-8.6,2.4-12.1l1.1,0.5l0.7-1.6l-1.6-0.4c2.1-5.9,4-10.7,5.8-14.3l-0.4-1.4l-7.8,4.3
			c-1.1,0.6-2.1,2.1-2.9,4.5c-1.1,0.1-2.2,0.8-3.4,2.1c-1.2,1.3-2.2,2-2.9,2.3l-1.4-0.9c-4.9,8.9-10.9,17.9-17.7,26.8l-0.5-1.8
			l-2.2-1.1c-1.1,3.1-2.2,6.3-3.3,9.6c-1,2.7-2.6,4.2-4.9,4.5c-6.2,11.7-9.2,18.9-9.2,21.7v0.7l-1.4,0.2l-1.6,0.2
			c-2.2-0.4-3.6-2.1-4.3-5.2c3.4-7.2,10.4-23.5,21.2-48.9l1.6-0.4c0.7-1.6,1.4-3.7,2-6.3l-0.2-0.7c2.9-3.5,4.3-5.9,4.3-7.1l-0.2-0.9
			l1.4-0.4l-0.2-0.5c0.5-3.6,3.2-10.1,8.1-19.5l2.2-0.2h0.4c2.9,0,7.7,2.7,14.5,8L195,72.6l23.3-21l2.2-1.3c0.7-0.1,1.5-0.2,2.4-0.2
			c4,0,7.5,0.9,10.6,2.7C236.5,54.7,238.5,57,239.5,59.8z"/>
		<path class="st0" d="M307.4,55.8c-3.1,0.4-7.9,1-14.3,2l-0.9,0.2l0.7,1.1c-2.7,0.2-6.6,0.8-11.8,1.8c-4.5,0.8-7.7,1.3-9.8,1.3
			h-1.3l-0.2,1.4l0.2,1.3l-1.3-0.2l-2,2.7l-0.2-1.6c-0.7,1.4-1.3,3.2-1.6,5.2l-0.7,4c-1.7,0.5-3.3,1.7-4.9,3.7c-1.6,2-3.3,3-5.1,3
			h-0.2l-0.4-2.2l-1.1,4c-3.1,2.5-4.8,4.7-4.9,6.5c0,0.5,0.2,1.1,0.7,1.8c-0.6,0.8-0.9,1.8-0.9,2.7v1.1c0,0.8-3,6.4-9.1,16.7
			l-1.3-0.9l-1.1,2.5l0.5,0.7h1.6l0.2,1.6c-2.3,4-4.2,8.9-5.8,14.7l0.9,0.5c6.5-6.9,11-10.9,13.4-11.9c0.7-1.9,2.9-3.9,6.5-6
			c4.3-2.7,7.4-4.9,9.1-6.9l1.1,0.7c2.5-1.9,5.4-4.3,8.5-7.1l0.7,1.3c14.7-10.3,25.4-17.1,32-20.5l1.8,1.1
			c-21.7,13.6-42.4,29.4-62.1,47.2l0.9,0.9c-4.6,6.8-8.1,10.1-10.5,10.1h-0.4c-2.3,0-4.6-1.4-6.9-4.1c-2.3-2.7-3.7-6.1-4.2-10
			c4-16.9,11.1-35.9,21.4-57l0.5,1.6l2.9-6.3l-1.4-0.7c-1.7,0.8-3,2.2-4,4.2l-4,0.2l-1.3-0.9l-4.3,2.2l-4.7-7.4l2.4-9.6h3.3
			c1,0,3,0.1,6,0.3c3,0.2,5.6,0.3,7.8,0.3c1.9,0,3.7-0.2,5.4-0.5c1-0.2,1.9-0.5,2.9-0.7c7.2-11.8,15.6-24,25.2-36.4h0.4
			c3.1,0,6.5,1.8,10.1,5.4c4.1,4.1,6.8,9.1,8.1,14.8c-3.7,1.6-8.9,5.9-15.4,13l-0.5-1.6c-1.4,1-2.8,2.4-4,4.2l-1.3-0.2l-1.4,2.2
			l4.2,1.1l1.3-1.1l2,2l2.5-1.6c2.9,1.1,6.8,1.6,11.8,1.6c2.9,0,5.1-0.2,6.5-0.7L307.4,55.8z"/>
		<path class="st0" d="M381.1,68.6c-4.7,4.1-10.1,10.6-16.1,19.4c-6.6,9.5-11.6,16-15,19.4c-0.7,2.4-4.5,7.3-11.2,14.7
			c-1.2,4-4.3,8-9.2,11.9c0,1.1-0.5,2.2-1.6,3.3c-2.2,1.9-3.3,3-3.4,3.3l0.4,0.4c-0.8,1.1-1.9,1.6-3.1,1.6l-0.7-0.4l-0.9,0.7l2,0.7
			c-1.4,1.8-2.9,3.7-4.3,5.6c-1.2,1.4-2.5,2.2-3.8,2.2h-0.4l0.2,1.1c0,1.2-1.9,2.4-5.6,3.4c-5.1,5.1-8.5,7.8-10.3,8.1
			c-14.7,11.6-27.9,17.8-39.5,18.6c-1.9,1.1-4.7,1.8-8.3,2.2c-4.3,0.4-7.2,0.8-8.7,1.3c-0.8-0.5-1.9-0.7-3.1-0.7
			c-0.8,0-2.1,0.1-3.6,0.4c-1.6,0.2-2.7,0.4-3.4,0.4h-1.1c-0.5,0.5-1.3,0.7-2.4,0.7c-0.4,0-1.4-0.5-3.3-1.4
			c-1.8-0.9-3.3-1.4-4.5-1.4l-1.8,0.4l-1.3-0.7c-0.7,0.2-1.7,0.6-2.9,1.1l-0.7-0.4c-1.1-1.6-2.5-2.4-4.2-2.4c-0.6,0-1.4,0.1-2.4,0.3
			c-1,0.2-1.8,0.3-2.3,0.3c-1.8,0-3.1-0.9-4-2.7h-0.9c-1,0-2.8-0.4-5.4-1.1c-3.1-0.8-5.7-1.4-7.6-1.6c-0.5-1.2-1.6-2.2-3.3-3.1
			c-2.2-1-4.3-1.9-6.3-2.7c-9.7-6.6-14.5-12.6-14.7-17.7c13.8,17.5,34.6,26.2,62.4,26.2c11,0,22.7-1.6,35.3-4.7
			c29.9-12.2,56.2-37.8,78.7-76.7c3.5-4.9,7.1-10.7,10.9-17.4l-3.1,0.7c-19.5,15.6-39.2,32.7-58.8,51.4v1.1h-0.5
			c-2.3,0-5.3-2.1-9.1-6.2c0.1-15.8,10.6-36.4,31.3-61.7L322.8,54c7.1,3.3,10.9,7.7,11.2,13.2c-0.7,1.3-2.6,2.9-5.6,4.7
			c-2.3,1.3-3.5,3.1-3.6,5.2c-2.9,1.9-6.4,5.5-10.4,10.7c-4,5.2-7.4,8.8-10,10.7c-2.7,5.4-5.2,10.3-7.8,14.7
			c25.6-19.5,41.6-32,48.1-37.3c13.3-10.7,22.1-19.2,26.4-25.3c6,5.3,9.4,11.1,10.1,17.4L381.1,68.6z"/>
		<path class="st0" d="M440.1,7.3c12.5,1.7,23.2,7,32,15.9c8.3,8.4,12.5,17.5,12.5,27.2c0,15.1-11.7,32.3-35.1,51.8l-1.3-0.2
			c-2.3,2.9-4.2,5.6-5.8,8.1c-3.4,1.4-7.6,4.5-12.7,9.2h-1.8c-5.7,3.5-13.5,9-23.5,16.7h-1.6l-8.7,5.2l-1.3-0.2
			c-10.5,4.6-21.6,8.7-33.3,12.3l-2-2.5c0.4-6.4,23.6-51.5,69.7-135.4h0.5c2.1,0,4.6,1.3,7.6,3.8c3.5,3,6.3,6.8,8.5,11.4
			c-5.4,8.4-11,15.7-16.8,21.7h-0.9c-1.2,0-2.4,1-3.6,2.9c-2.2,3.3-3.7,5.3-4.5,6.2l0.7,1.1v0.7c0,1.3-1.3,3.5-3.9,6.6
			c-2.6,3.1-4.1,6-4.4,8.8l0.2,1.4l-2.2-0.4l-2.4,10c-3.7,4.2-7.1,9-10,14.3l-1.1-0.2c-2.8,5.3-5.8,10.1-9,14.5l-4.2,1.4l1.3,1.3
			c-1.4,2.2-2.2,4-2.2,5.6c0,0.6,0.2,1.3,0.5,2c-3.6,1.8-6.7,5.4-9.2,10.7l1.3,1.1l2.4-2l1.3,0.5c3.6-2.3,6.9-5.2,10-8.9l1.1,0.2
			l2.7-3.1c10.6-5.8,21.2-13.8,31.7-23.9c7.2-6.8,16.8-17,28.6-30.8c4.9-5.8,9.1-12.8,12.3-21c3.1-7.7,4.7-14.4,4.7-19.9
			c0-4.5-1.8-8.1-5.5-10.9c-3.7-2.8-9.7-5.4-18-8l-2.5,0.7l-6.7-1.8l0.4-0.4c-0.1,0-1.1,0.7-2.9,2c-2.9,0.2-4.8,0.4-5.8,0.4h-3.8
			c-4.1,0-6.9,0.3-8.5,0.9l-4.5-0.7l-2.7,2h-1.6l-4.2,2.2l-2.7-1.1c-2.7,1.2-5.9,2.2-9.6,2.9c-3.3,0.6-5.2,1.2-6,1.8l-3.6-0.5
			c-1.2,0.8-2.6,1.3-4.2,1.3c-2.2,0-4.3-1.2-6.4-3.6c-2.1-2.4-3.2-5.3-3.2-8.7c0-0.6,0.4-3.1,1.3-7.6c1.9,1,4.6,1.4,8.1,1.4
			c0.4,0,0.9-0.1,1.6-0.2c0.7,0,1.3,0,1.6,0c0.7,0,1.3,0.1,1.8,0.2l10.1,0.5l0.9-0.7l3.3,0.7c2.4-0.2,4.4-0.4,6-0.4
			C410.9,4,424,5.1,440.1,7.3z"/>
		<path class="st0" d="M572.2,69.7l0.9,1.4c-0.8,1-2,2.8-3.4,5.4l0.4-0.4c-6.3,6.6-25.4,26.6-57.4,59.9l-1.6,0.2
			c-2.8-0.2-4.6-1.3-5.4-3.1c-0.7-1.3-1.1-4.1-1.1-8.3c0-4.8,1.3-8.6,4-11.2c0.8-3.5,2.8-8,6-13.6c3.6-6.4,5.9-11,6.9-13.8
			c-6.6,4-11.6,8.7-15,14.1c-1.4,0.1-2.7,1-3.8,2.5c-1.7,2.8-2.8,4.5-3.4,5.1l-25.5,25.3c-1,0.5-1.6,0.7-1.8,0.7
			c-0.8-0.1-1.8-0.6-2.8-1.4c-1-0.8-1.8-1.3-2.4-1.3c-2.2-0.8-3.3-2.5-3.4-5.1c0-0.1,0.1-0.9,0.4-2.4c8.1-18.1,15-31.9,20.8-41.4
			c7.2-11.9,14.7-20.6,22.4-26.1c3.1-4.8,6.6-7.2,10.3-7.2c2.4,0,5.5,1.8,9.2,5.4c5.1,4.7,8.9,7.8,11.6,9.2c1-0.8,2.7-2.8,5.1-5.8
			c1.4-1.8,2.8-2.7,4-2.7c1,0,1.9,0.4,2.7,1.1c4.5,2.3,7.2,5.8,8.3,10.5c-1.8,1.1-4.1,3.1-6.8,6.2c-2.7,3-4.9,5-6.6,6
			c-1.1,2.2-3.5,5.4-7.2,9.8c-3.4,3.9-5.6,7.2-6.7,10H530c-1.6,0-2.9,1.5-4,4.5v1.3c0,1.6-1.1,3.5-3.4,5.9c-2.3,2.4-3.6,4.6-3.8,6.6
			l-0.7-0.2c-0.7,0.4-1.1,0.8-1.3,1.3l0.9,2.4c-1.8,0.8-2.7,1.9-2.7,3.1v0.7l0.7,0.7C544.8,94.8,563.6,76.4,572.2,69.7z M533.6,68.6
			c0.1,0,0.2-0.1,0.2-0.2c0-1.2-3.3-2.5-10-4V65c-2.2,0.5-4.2,1.8-6.2,4c-0.7,0.7-2.7,3.3-6,7.8c-1.9,1.4-4.8,4.3-8.6,8.4
			c-3.8,4.2-7.1,7.1-9.9,8.8c-8.1,10.6-12.2,16-12.3,16.3c-3.7,5.3-6.1,9.9-7.1,13.8c5.3-5.3,15.1-14.2,29.3-26.8
			C516.3,85.5,526.4,76,533.6,68.6z"/>
		<path class="st0" d="M636.8,55.8c-3.1,0.4-7.9,1-14.3,2l-0.9,0.2l0.7,1.1c-2.7,0.2-6.6,0.8-11.8,1.8c-4.5,0.8-7.7,1.3-9.8,1.3
			h-1.3l-0.2,1.4l0.2,1.3l-1.3-0.2l-2,2.7l-0.2-1.6c-0.7,1.4-1.3,3.2-1.6,5.2l-0.7,4c-1.7,0.5-3.3,1.7-4.9,3.7c-1.6,2-3.3,3-5.1,3
			h-0.2l-0.4-2.2l-1.1,4c-3.1,2.5-4.8,4.7-4.9,6.5c0,0.5,0.2,1.1,0.7,1.8c-0.6,0.8-0.9,1.8-0.9,2.7v1.1c0,0.8-3,6.4-9,16.7l-1.3-0.9
			l-1.1,2.5l0.5,0.7h1.6l0.2,1.6c-2.3,4-4.2,8.9-5.8,14.7l0.9,0.5c6.5-6.9,11-10.9,13.4-11.9c0.7-1.9,2.9-3.9,6.5-6
			c4.3-2.7,7.4-4.9,9-6.9l1.1,0.7c2.5-1.9,5.4-4.3,8.5-7.1l0.7,1.3c14.7-10.3,25.4-17.1,32-20.5l1.8,1.1
			c-21.7,13.6-42.4,29.4-62.1,47.2l0.9,0.9c-4.6,6.8-8.1,10.1-10.5,10.1h-0.4c-2.3,0-4.6-1.4-6.9-4.1c-2.3-2.7-3.7-6.1-4.2-10
			c4-16.9,11.1-35.9,21.4-57l0.5,1.6l2.9-6.3l-1.4-0.7c-1.7,0.8-3,2.2-4,4.2l-4,0.2l-1.3-0.9l-4.3,2.2l-4.7-7.4l2.4-9.6h3.3
			c1,0,3,0.1,6,0.3c3,0.2,5.6,0.3,7.8,0.3c1.9,0,3.7-0.2,5.4-0.5c1-0.2,1.9-0.5,2.9-0.7c7.2-11.8,15.6-24,25.2-36.4h0.4
			c3.1,0,6.5,1.8,10.1,5.4c4.1,4.1,6.8,9.1,8.1,14.8c-3.7,1.6-8.9,5.9-15.4,13l-0.5-1.6c-1.4,1-2.8,2.4-4,4.2l-1.3-0.2l-1.4,2.2
			l4.2,1.1l1.3-1.1l2,2l2.5-1.6c2.9,1.1,6.8,1.6,11.8,1.6c2.9,0,5.1-0.2,6.5-0.7L636.8,55.8z"/>
		<path class="st0" d="M666.8,101.2c-18.6,9.9-30.7,18-36.2,24.3c-2.1,0.5-4.4,2-7,4.5c-2.6,2.5-4.7,3.8-6.2,3.8
			c-1.2,0-2.4-0.4-3.6-1.1c-1.8-2.4-2.7-5.5-2.7-9.2c0-3.5,1.7-10.4,5.1-20.8c10.4-22.4,21.1-38.3,32-47.6c5.5,2.3,9.6,5.4,12.1,9.4
			c-0.4,1.4-3.4,5.1-9.1,11c-0.6,1.1-2.5,3.7-5.6,7.8c-2.1,2.8-3.3,5.2-3.6,7.2c-2.1,0.2-3.7,1.6-4.9,4c-1.6,3.3-2.8,5.3-3.8,6.2
			l0.4,0.5c-0.7,1.1-2.5,3.2-5.4,6.3c-1.9,2.1-2.9,4-2.9,6v0.5c-3.5,2.3-5.4,5.6-5.8,10l1.1,0.7c21.2-15.7,35.5-24.9,42.7-27.5h0.7
			c1.1,0,2,0.8,2.7,2.4V101.2z M687.8,30.6c0.4,0.8,0.5,1.7,0.5,2.5c0,2.9-1.3,4.3-3.8,4.3H684c-0.6,0-1.5-0.1-2.6-0.4
			c-1.1-0.2-2-0.4-2.4-0.4c-1.8,0-3.2,0.8-4.2,2.5l-1.1,0.4c-1-0.2-2-0.7-3-1.3c-1-0.6-1.7-0.9-1.9-0.9c-0.8,0-1.4,0.8-1.6,2.3
			c-0.7,0.3-1.8,0.4-3.1,0.4h-0.9c-0.6,0-1.2,0-1.8,0c-0.2,0-1.1,0-2.5,0l-1.1-0.5c6-11.6,13.2-18.8,21.4-21.7
			c1.7,1,3.3,2.8,4.7,5.6C685.7,27.3,687,29.7,687.8,30.6z"/>
		<path class="st0" d="M744.7,85.6c-11.5,9.9-19.9,16.3-25.2,19.2c-13.2,10.1-23.1,18.8-29.9,25.9l0.5,1.6c0,0.1,0.1,0.2,0.2,0.2
			c0,0.1,0,0.2,0,0.4c0,0.7-0.6,1.4-1.8,2c-4.3-0.8-7-3.3-8-7.4c0.7-7,4.1-16.2,10.1-27.5c6.6-11.8,13.3-23.6,19.9-35.5
			c-17.1,13.9-31.9,27.3-44.2,40.2c-9.9,10.3-16.5,18.3-19.7,24.1c-0.4,1.1-0.8,2.2-1.3,3.3c-0.5,1.1-1.2,1.7-2.2,1.8l-1.1-0.2
			c-1.7-0.2-2.9-1.3-3.6-3.1l0.2-0.7c0.7-5.5,3.1-11.9,7.1-19.2c2.8-4.9,7.7-12.6,14.8-23c3.9-7.5,14.7-23.3,32.6-47.6
			c8.4,5.8,12.7,10.9,12.7,15.2c-2.3,0.6-4.9,2.2-7.8,4.9c-3.1,3-5.6,4.9-7.2,5.6c-0.4,1.4-1.5,3-3.5,4.5c-2,1.6-3.1,3-3.3,4.3
			c-0.6,0.6-2.2,1.6-4.7,2.9c-1.4,0.8-2.2,2.1-2.2,3.6v0.7l-0.7-0.2c-0.4,0.6-1.1,1.4-2.4,2.5l-7.6,10l1.3,1.1
			c2.9-2.4,11.7-10.1,26.4-23c9.3-8.2,16.9-14,22.8-17.4h1.8c5.3,0,10.5,3.9,15.6,11.6l0.4,2c-0.5,2.2-2.1,4-5,5.3
			c-2.8,1.4-4.6,3.3-5.3,5.7c-1.4,0.2-2.8,1.1-4.2,2.5c-1.8,1.9-3.1,3.1-4,3.6c-6.6,7-13.7,16.8-21.2,29.5l0.7,0.7
			c17.7-12.7,34.2-23.7,49.4-33.1L744.7,85.6z"/>
		<path class="st0" d="M806,70.1l-0.5,4c-12.4,11.8-30.2,36-53.2,72.6l-2.9-0.7l1.3,2.7c-1.4,1.3-3.1,2.1-4.9,2.2l-1.4,3.8
			c-1.3,0.7-3.6,2.4-6.9,5.1c-2.5,2.1-4.6,3.3-6.3,3.6c-1.4,3.6-9.2,9.1-23.2,16.5L707,179c-2.7,1.9-5.9,3.3-9.8,4
			c-3,0.5-6,0.9-9,1.3c-1,0.1-3.6,0.7-8,1.8c-3.4,1-6.3,1.4-8.9,1.4c-17.1,0-32.2-2.7-45.1-8.1c-10.5-4.5-15.7-10-15.7-16.5V162
			l0.2-1.6c2.3,7,8.6,12.5,19,16.4c10.4,3.9,24.2,5.9,41.4,5.9c20.9,0,38.7-6.9,53.4-20.6c13.6-12.7,27.5-34.2,41.4-64.6l-0.9-0.7
			c-14.4,12.7-21.9,20.5-22.6,23.3l-4,2.5c-3.4,8-6.4,11.9-9,11.9c-2.2,0-4.8-1.5-7.8-4.4c-3-3-4.9-6.5-5.6-10.6
			c2.5-2.5,3.8-4.9,3.8-7.2v-0.7l4.7-5.2v-2.2c4.8-6.8,8.3-11.9,10.5-15.6l-0.9-1.6l5.4-4.7l-0.4-1.3c0-1.2,0.8-2.7,2.4-4.3
			c1.6-1.7,3.3-3.4,5.2-5.2c2.1-5.1,5.1-9.7,9.1-13.9c4-4.2,7.9-6.9,11.7-8.1L787.4,63c2.5-1.9,5.6-4.6,9.2-8l2.7,1.6
			C801,61.9,803.3,66.3,806,70.1z M783.9,69.7c-0.8-2.5-2.1-3.8-3.6-3.8c-0.7,0-2.8,1.8-6.3,5.2c-5.7,5.4-10.7,10-15,13.6l-0.7-0.2
			c-2.3,0.2-4.8,2.8-7.6,7.6c-2.5,1.2-5,4.9-7.4,11c-1.6,0.4-3.1,1-4.7,2c-0.8,1.9-2.3,4.8-4.3,8.5l-1.4-0.2c-0.1,1.6-0.9,3.6-2.4,6
			c-2.1,3.4-3.3,5.7-3.8,7.1l29.1-26.6c9-8.3,14.2-13.1,15.6-14.3C776.7,80.1,780.9,74.8,783.9,69.7z"/>
	</g>
	<g>
		<path class="st1" d="M84.3,6.3c12.5,1.7,23.2,7,32,15.9c8.3,8.4,12.5,17.5,12.5,27.2c0,15.1-11.7,32.3-35.1,51.8l-1.3-0.2
			c-2.3,2.9-4.2,5.6-5.8,8.1c-3.4,1.4-7.6,4.5-12.7,9.2h-1.8c-5.7,3.5-13.5,9-23.5,16.7H47l-8.7,5.2L37,140
			c-10.5,4.6-21.6,8.7-33.3,12.3l-2-2.5c0.4-6.4,23.6-51.5,69.7-135.4H72c2.1,0,4.6,1.3,7.6,3.8c3.5,3,6.3,6.8,8.5,11.4
			c-5.4,8.4-11,15.7-16.8,21.7h-0.9c-1.2,0-2.4,1-3.6,2.9c-2.2,3.3-3.7,5.3-4.5,6.2l0.7,1.1v0.7c0,1.3-1.3,3.5-3.9,6.6
			c-2.6,3.1-4.1,6-4.4,8.8l0.2,1.4l-2.2-0.4l-2.4,10c-3.7,4.2-7.1,9-10,14.3l-1.1-0.2c-2.8,5.3-5.8,10.1-9,14.5l-4.2,1.4l1.3,1.3
			c-1.4,2.2-2.2,4-2.2,5.6c0,0.6,0.2,1.3,0.5,2c-3.6,1.8-6.7,5.4-9.2,10.7l1.3,1.1l2.4-2l1.3,0.5c3.6-2.3,6.9-5.2,10-8.9l1.1,0.2
			l2.7-3.1c10.6-5.8,21.2-13.8,31.7-23.9c7.2-6.8,16.8-17,28.6-30.8c4.9-5.8,9-12.8,12.3-21c3.1-7.7,4.7-14.4,4.7-19.9
			c0-4.5-1.8-8.1-5.5-10.9c-3.7-2.8-9.7-5.4-18-8l-2.5,0.7l-6.7-1.8l0.4-0.4c-0.1,0-1.1,0.7-2.9,2c-2.9,0.2-4.8,0.4-5.8,0.4h-3.8
			c-4.1,0-6.9,0.3-8.5,0.9l-4.5-0.7l-2.7,2h-1.6L45.9,17l-2.7-1.1c-2.7,1.2-5.9,2.2-9.6,2.9c-3.3,0.6-5.2,1.2-6,1.8L24,20
			c-1.2,0.8-2.6,1.3-4.2,1.3c-2.2,0-4.3-1.2-6.4-3.6c-2.1-2.4-3.2-5.3-3.2-8.7c0-0.6,0.4-3.1,1.3-7.6c1.9,1,4.6,1.4,8.1,1.4
			c0.4,0,0.9-0.1,1.6-0.2c0.7,0,1.3,0,1.6,0c0.7,0,1.3,0.1,1.8,0.2l10.1,0.5l0.9-0.7L39,3.4C41.4,3.1,43.4,3,45,3
			C55.1,3,68.2,4.1,84.3,6.3z"/>
		<path class="st1" d="M169.3,100.2c-18.6,9.9-30.7,18-36.2,24.3c-2.1,0.5-4.4,2-7,4.5c-2.6,2.5-4.7,3.8-6.2,3.8
			c-1.2,0-2.4-0.4-3.6-1.1c-1.8-2.4-2.7-5.5-2.7-9.2c0-3.5,1.7-10.4,5.1-20.8c10.4-22.4,21.1-38.3,32-47.6c5.5,2.3,9.6,5.4,12.1,9.4
			c-0.4,1.4-3.4,5.1-9,11c-0.6,1.1-2.5,3.7-5.6,7.8c-2.1,2.8-3.3,5.2-3.6,7.2c-2.1,0.2-3.7,1.6-4.9,4c-1.6,3.3-2.8,5.3-3.8,6.2
			l0.4,0.5c-0.7,1.1-2.5,3.2-5.4,6.3c-1.9,2.1-2.9,4-2.9,6v0.5c-3.5,2.3-5.4,5.6-5.8,10l1.1,0.7c21.2-15.7,35.5-24.9,42.7-27.5h0.7
			c1.1,0,2,0.8,2.7,2.4V100.2z M190.3,29.6c0.4,0.8,0.5,1.7,0.5,2.5c0,2.9-1.3,4.3-3.8,4.3h-0.5c-0.6,0-1.5-0.1-2.6-0.4
			c-1.1-0.2-2-0.4-2.4-0.4c-1.8,0-3.2,0.8-4.2,2.5l-1.1,0.4c-1-0.2-2-0.7-3-1.3c-1-0.6-1.7-0.9-1.9-0.9c-0.8,0-1.4,0.8-1.6,2.3
			c-0.7,0.3-1.8,0.4-3.1,0.4h-0.9c-0.6,0-1.2,0-1.8,0c-0.2,0-1.1,0-2.5,0l-1.1-0.5c6-11.6,13.2-18.8,21.4-21.7
			c1.7,1,3.3,2.8,4.7,5.6C188.2,26.3,189.5,28.7,190.3,29.6z"/>
		<path class="st1" d="M232.9,58.8c-4.7,10-8.8,15.7-12.3,17.2c-1.4,0.6-2.6,1.7-3.5,3.3c-0.9,1.6-1.8,2.6-2.8,3l-1.1-0.5
			c-5.9,6.9-10.3,10.7-13,11.6v-0.9c0-4.6,0.8-8.6,2.4-12.1l1.1,0.5l0.7-1.6l-1.6-0.4c2.1-5.9,4-10.7,5.8-14.3l-0.4-1.4l-7.8,4.3
			c-1.1,0.6-2.1,2.1-2.9,4.5c-1.1,0.1-2.2,0.8-3.4,2.1c-1.2,1.3-2.2,2-2.9,2.3l-1.4-0.9c-4.9,8.9-10.9,17.9-17.7,26.8l-0.5-1.8
			l-2.2-1.1c-1.1,3.1-2.2,6.3-3.3,9.6c-1,2.7-2.6,4.2-4.9,4.5c-6.2,11.7-9.2,18.9-9.2,21.7v0.7l-1.4,0.2l-1.6,0.2
			c-2.2-0.4-3.6-2.1-4.3-5.2c3.4-7.2,10.4-23.5,21.2-48.9l1.6-0.4c0.7-1.6,1.4-3.7,2-6.3l-0.2-0.7c2.9-3.5,4.3-5.9,4.3-7.1l-0.2-0.9
			l1.4-0.4l-0.2-0.5c0.5-3.6,3.2-10.1,8.1-19.5l2.2-0.2h0.4c2.9,0,7.7,2.7,14.5,8l-11.2,17.6l23.3-21l2.2-1.3
			c0.7-0.1,1.5-0.2,2.4-0.2c4,0,7.5,0.9,10.6,2.7C229.9,53.7,231.9,56,232.9,58.8z"/>
		<path class="st1" d="M300.8,54.8c-3.1,0.4-7.9,1-14.3,2l-0.9,0.2l0.7,1.1c-2.7,0.2-6.6,0.8-11.8,1.8c-4.5,0.8-7.7,1.3-9.8,1.3
			h-1.3l-0.2,1.4l0.2,1.3l-1.3-0.2l-2,2.7l-0.2-1.6c-0.7,1.4-1.3,3.2-1.6,5.2l-0.7,4c-1.7,0.5-3.3,1.7-4.9,3.7c-1.6,2-3.3,3-5.1,3
			h-0.2l-0.4-2.2l-1.1,4c-3.1,2.5-4.8,4.7-4.9,6.5c0,0.5,0.2,1.1,0.7,1.8c-0.6,0.8-0.9,1.8-0.9,2.7v1.1c0,0.8-3,6.4-9.1,16.7
			l-1.3-0.9l-1.1,2.5l0.5,0.7h1.6l0.2,1.6c-2.3,4-4.2,8.9-5.8,14.7l0.9,0.5c6.5-6.9,11-10.9,13.4-11.9c0.7-1.9,2.9-3.9,6.5-6
			c4.3-2.7,7.4-4.9,9.1-6.9l1.1,0.7c2.5-1.9,5.4-4.3,8.5-7.1l0.7,1.3c14.7-10.3,25.4-17.1,32-20.5l1.8,1.1
			c-21.7,13.6-42.4,29.4-62.1,47.2l0.9,0.9c-4.6,6.8-8.1,10.1-10.5,10.1h-0.4c-2.3,0-4.6-1.4-6.9-4.1c-2.3-2.7-3.7-6.1-4.2-10
			c4-16.9,11.1-35.9,21.4-57L239,70l2.9-6.3l-1.4-0.7c-1.7,0.8-3,2.2-4,4.2l-4,0.2l-1.3-0.9l-4.3,2.2l-4.7-7.4l2.4-9.6h3.3
			c1,0,3,0.1,6,0.3c3,0.2,5.6,0.3,7.8,0.3c1.9,0,3.7-0.2,5.4-0.5c1-0.2,1.9-0.5,2.9-0.7c7.2-11.8,15.6-24,25.2-36.4h0.4
			c3.1,0,6.5,1.8,10.1,5.4c4.1,4.1,6.8,9.1,8.1,14.8c-3.7,1.6-8.9,5.9-15.4,13l-0.5-1.6c-1.4,1-2.8,2.4-4,4.2l-1.3-0.2l-1.4,2.2
			l4.2,1.1l1.3-1.1l2,2l2.5-1.6c2.9,1.1,6.8,1.6,11.8,1.6c2.9,0,5.1-0.2,6.5-0.7L300.8,54.8z"/>
		<path class="st1" d="M374.4,67.6c-4.7,4.1-10.1,10.6-16.1,19.4c-6.6,9.5-11.6,16-15,19.4c-0.7,2.4-4.5,7.3-11.2,14.7
			c-1.2,4-4.3,8-9.2,11.9c0,1.1-0.5,2.2-1.6,3.3c-2.2,1.9-3.3,3-3.4,3.3l0.4,0.4c-0.8,1.1-1.9,1.6-3.1,1.6l-0.7-0.4l-0.9,0.7l2,0.7
			c-1.4,1.8-2.9,3.7-4.3,5.6c-1.2,1.4-2.5,2.2-3.8,2.2h-0.4l0.2,1.1c0,1.2-1.9,2.4-5.6,3.4c-5.1,5.1-8.5,7.8-10.3,8.1
			c-14.7,11.6-27.9,17.8-39.5,18.6c-1.9,1.1-4.7,1.8-8.3,2.2c-4.3,0.4-7.2,0.8-8.7,1.3c-0.8-0.5-1.9-0.7-3.1-0.7
			c-0.8,0-2.1,0.1-3.6,0.4c-1.6,0.2-2.7,0.4-3.4,0.4h-1.1c-0.5,0.5-1.3,0.7-2.4,0.7c-0.4,0-1.4-0.5-3.3-1.4
			c-1.8-0.9-3.3-1.4-4.5-1.4l-1.8,0.4l-1.3-0.7c-0.7,0.2-1.7,0.6-2.9,1.1l-0.7-0.4c-1.1-1.6-2.5-2.4-4.2-2.4c-0.6,0-1.4,0.1-2.4,0.3
			c-1,0.2-1.8,0.3-2.3,0.3c-1.8,0-3.1-0.9-4-2.7h-0.9c-1,0-2.8-0.4-5.4-1.1c-3.1-0.8-5.7-1.4-7.6-1.6c-0.5-1.2-1.6-2.2-3.3-3.1
			c-2.2-1-4.3-1.9-6.3-2.7c-9.7-6.6-14.5-12.6-14.7-17.7c13.8,17.5,34.6,26.2,62.4,26.2c11,0,22.7-1.6,35.3-4.7
			c29.9-12.2,56.2-37.8,78.7-76.7c3.5-4.9,7.1-10.7,10.9-17.4l-3.1,0.7c-19.5,15.6-39.2,32.7-58.8,51.4v1.1h-0.5
			c-2.3,0-5.3-2.1-9.1-6.2c0.1-15.8,10.6-36.4,31.3-61.7L316.1,53c7.1,3.3,10.9,7.7,11.2,13.2c-0.7,1.3-2.6,2.9-5.6,4.7
			c-2.3,1.3-3.5,3.1-3.6,5.2c-2.9,1.9-6.4,5.5-10.4,10.7c-4,5.2-7.4,8.8-10,10.7c-2.7,5.4-5.2,10.3-7.8,14.7
			c25.6-19.5,41.6-32,48.1-37.3c13.3-10.7,22.1-19.2,26.4-25.3c6,5.3,9.4,11.1,10.1,17.4L374.4,67.6z"/>
		<path class="st1" d="M433.4,6.3c12.5,1.7,23.2,7,32,15.9c8.3,8.4,12.5,17.5,12.5,27.2c0,15.1-11.7,32.3-35.1,51.8l-1.3-0.2
			c-2.3,2.9-4.2,5.6-5.8,8.1c-3.4,1.4-7.6,4.5-12.7,9.2h-1.8c-5.7,3.5-13.5,9-23.5,16.7h-1.6l-8.7,5.2l-1.3-0.2
			c-10.5,4.6-21.6,8.7-33.3,12.3l-2-2.5c0.4-6.4,23.6-51.5,69.7-135.4h0.5c2.1,0,4.6,1.3,7.6,3.8c3.5,3,6.3,6.8,8.5,11.4
			c-5.4,8.4-11,15.7-16.8,21.7h-0.9c-1.2,0-2.4,1-3.6,2.9c-2.2,3.3-3.7,5.3-4.5,6.2l0.7,1.1v0.7c0,1.3-1.3,3.5-3.9,6.6
			c-2.6,3.1-4.1,6-4.4,8.8l0.2,1.4l-2.2-0.4l-2.4,10c-3.7,4.2-7.1,9-10,14.3l-1.1-0.2c-2.8,5.3-5.8,10.1-9,14.5l-4.2,1.4l1.3,1.3
			c-1.4,2.2-2.2,4-2.2,5.6c0,0.6,0.2,1.3,0.5,2c-3.6,1.8-6.7,5.4-9.2,10.7l1.3,1.1l2.4-2l1.3,0.5c3.6-2.3,6.9-5.2,10-8.9l1.1,0.2
			l2.7-3.1c10.6-5.8,21.2-13.8,31.7-23.9c7.2-6.8,16.8-17,28.6-30.8c4.9-5.8,9.1-12.8,12.3-21c3.1-7.7,4.7-14.4,4.7-19.9
			c0-4.5-1.8-8.1-5.5-10.9c-3.7-2.8-9.7-5.4-18-8l-2.5,0.7l-6.7-1.8l0.4-0.4c-0.1,0-1.1,0.7-2.9,2c-2.9,0.2-4.8,0.4-5.8,0.4h-3.8
			c-4.1,0-6.9,0.3-8.5,0.9l-4.5-0.7l-2.7,2h-1.6L395,17l-2.7-1.1c-2.7,1.2-5.9,2.2-9.6,2.9c-3.3,0.6-5.2,1.2-6,1.8l-3.6-0.5
			c-1.2,0.8-2.6,1.3-4.2,1.3c-2.2,0-4.3-1.2-6.4-3.6c-2.1-2.4-3.2-5.3-3.2-8.7c0-0.6,0.4-3.1,1.3-7.6c1.9,1,4.6,1.4,8.1,1.4
			c0.4,0,0.9-0.1,1.6-0.2c0.7,0,1.3,0,1.6,0c0.7,0,1.3,0.1,1.8,0.2L384,3.4l0.9-0.7l3.3,0.7c2.4-0.2,4.4-0.4,6-0.4
			C404.3,3,417.4,4.1,433.4,6.3z"/>
		<path class="st1" d="M565.5,68.7l0.9,1.4c-0.8,1-2,2.8-3.4,5.4l0.4-0.4c-6.3,6.6-25.4,26.6-57.4,59.9l-1.6,0.2
			c-2.8-0.2-4.6-1.3-5.4-3.1c-0.7-1.3-1.1-4.1-1.1-8.3c0-4.8,1.3-8.6,4-11.2c0.8-3.5,2.8-8,6-13.6c3.6-6.4,5.9-11,6.9-13.8
			c-6.6,4-11.6,8.7-15,14.1c-1.4,0.1-2.7,1-3.8,2.5c-1.7,2.8-2.8,4.5-3.4,5.1l-25.5,25.3c-1,0.5-1.6,0.7-1.8,0.7
			c-0.8-0.1-1.8-0.6-2.8-1.4c-1-0.8-1.8-1.3-2.4-1.3c-2.2-0.8-3.3-2.5-3.4-5.1c0-0.1,0.1-0.9,0.4-2.4c8.1-18.1,15-31.9,20.8-41.4
			c7.2-11.9,14.7-20.6,22.4-26.1c3.1-4.8,6.6-7.2,10.3-7.2c2.4,0,5.5,1.8,9.2,5.4c5.1,4.7,8.9,7.8,11.6,9.2c1-0.8,2.7-2.8,5.1-5.8
			c1.4-1.8,2.8-2.7,4-2.7c1,0,1.9,0.4,2.7,1.1c4.5,2.3,7.2,5.8,8.3,10.5c-1.8,1.1-4.1,3.1-6.8,6.2c-2.7,3-4.9,5-6.6,6
			c-1.1,2.2-3.5,5.4-7.2,9.8c-3.4,3.9-5.6,7.2-6.7,10h-0.5c-1.6,0-2.9,1.5-4,4.5v1.3c0,1.6-1.1,3.5-3.4,5.9
			c-2.3,2.4-3.6,4.6-3.8,6.6l-0.7-0.2c-0.7,0.4-1.1,0.8-1.3,1.3l0.9,2.4c-1.8,0.8-2.7,1.9-2.7,3.1v0.7l0.7,0.7
			C538.2,93.8,557,75.4,565.5,68.7z M527,67.6c0.1,0,0.2-0.1,0.2-0.2c0-1.2-3.3-2.5-10-4V64c-2.2,0.5-4.2,1.8-6.2,4
			c-0.7,0.7-2.7,3.3-6,7.8c-1.9,1.4-4.8,4.3-8.6,8.4c-3.8,4.2-7.1,7.1-9.9,8.8c-8.1,10.6-12.2,16-12.3,16.3
			c-3.7,5.3-6.1,9.9-7.1,13.8c5.3-5.3,15.1-14.2,29.3-26.8C509.6,84.5,519.8,75,527,67.6z"/>
		<path class="st1" d="M630.2,54.8c-3.1,0.4-7.9,1-14.3,2L615,57l0.7,1.1c-2.7,0.2-6.6,0.8-11.8,1.8c-4.5,0.8-7.7,1.3-9.8,1.3h-1.3
			l-0.2,1.4l0.2,1.3l-1.3-0.2l-2,2.7l-0.2-1.6c-0.7,1.4-1.3,3.2-1.6,5.2l-0.7,4c-1.7,0.5-3.3,1.7-4.9,3.7c-1.6,2-3.3,3-5.1,3H577
			l-0.4-2.2l-1.1,4c-3.1,2.5-4.8,4.7-4.9,6.5c0,0.5,0.2,1.1,0.7,1.8c-0.6,0.8-0.9,1.8-0.9,2.7v1.1c0,0.8-3,6.4-9,16.7l-1.3-0.9
			l-1.1,2.5l0.5,0.7h1.6l0.2,1.6c-2.3,4-4.2,8.9-5.8,14.7l0.9,0.5c6.5-6.9,11-10.9,13.4-11.9c0.7-1.9,2.9-3.9,6.5-6
			c4.3-2.7,7.4-4.9,9-6.9l1.1,0.7c2.5-1.9,5.4-4.3,8.5-7.1l0.7,1.3c14.7-10.3,25.4-17.1,32-20.5l1.8,1.1
			c-21.7,13.6-42.4,29.4-62.1,47.2l0.9,0.9c-4.6,6.8-8.1,10.1-10.5,10.1h-0.4c-2.3,0-4.6-1.4-6.9-4.1c-2.3-2.7-3.7-6.1-4.2-10
			c4-16.9,11.1-35.9,21.4-57l0.5,1.6l2.9-6.3l-1.4-0.7c-1.7,0.8-3,2.2-4,4.2l-4,0.2l-1.3-0.9l-4.3,2.2l-4.7-7.4l2.4-9.6h3.3
			c1,0,3,0.1,6,0.3c3,0.2,5.6,0.3,7.8,0.3c1.9,0,3.7-0.2,5.4-0.5c1-0.2,1.9-0.5,2.9-0.7c7.2-11.8,15.6-24,25.2-36.4h0.4
			c3.1,0,6.5,1.8,10.1,5.4c4.1,4.1,6.8,9.1,8.1,14.8c-3.7,1.6-8.9,5.9-15.4,13l-0.5-1.6c-1.4,1-2.8,2.4-4,4.2l-1.3-0.2l-1.4,2.2
			l4.2,1.1l1.3-1.1l2,2l2.5-1.6c2.9,1.1,6.8,1.6,11.8,1.6c2.9,0,5.1-0.2,6.5-0.7L630.2,54.8z"/>
		<path class="st1" d="M660.2,100.2c-18.6,9.9-30.7,18-36.2,24.3c-2.1,0.5-4.4,2-7,4.5c-2.6,2.5-4.7,3.8-6.2,3.8
			c-1.2,0-2.4-0.4-3.6-1.1c-1.8-2.4-2.7-5.5-2.7-9.2c0-3.5,1.7-10.4,5.1-20.8c10.4-22.4,21.1-38.3,32-47.6c5.5,2.3,9.6,5.4,12.1,9.4
			c-0.4,1.4-3.4,5.1-9.1,11c-0.6,1.1-2.5,3.7-5.6,7.8c-2.1,2.8-3.3,5.2-3.6,7.2c-2.1,0.2-3.7,1.6-4.9,4c-1.6,3.3-2.8,5.3-3.8,6.2
			l0.4,0.5c-0.7,1.1-2.5,3.2-5.4,6.3c-1.9,2.1-2.9,4-2.9,6v0.5c-3.5,2.3-5.4,5.6-5.8,10l1.1,0.7c21.2-15.7,35.5-24.9,42.7-27.5h0.7
			c1.1,0,2,0.8,2.7,2.4V100.2z M681.2,29.6c0.4,0.8,0.5,1.7,0.5,2.5c0,2.9-1.3,4.3-3.8,4.3h-0.5c-0.6,0-1.5-0.1-2.6-0.4
			c-1.1-0.2-2-0.4-2.4-0.4c-1.8,0-3.2,0.8-4.2,2.5l-1.1,0.4c-1-0.2-2-0.7-3-1.3c-1-0.6-1.7-0.9-1.9-0.9c-0.8,0-1.4,0.8-1.6,2.3
			c-0.7,0.3-1.8,0.4-3.1,0.4h-0.9c-0.6,0-1.2,0-1.8,0c-0.2,0-1.1,0-2.5,0l-1.1-0.5c6-11.6,13.2-18.8,21.4-21.7
			c1.7,1,3.3,2.8,4.7,5.6C679,26.3,680.4,28.7,681.2,29.6z"/>
		<path class="st1" d="M738,84.6c-11.5,9.9-19.9,16.3-25.2,19.2c-13.2,10.1-23.1,18.8-29.9,25.9l0.5,1.6c0,0.1,0.1,0.2,0.2,0.2
			c0,0.1,0,0.2,0,0.4c0,0.7-0.6,1.4-1.8,2c-4.3-0.8-7-3.3-8-7.4c0.7-7,4.1-16.2,10.1-27.5c6.6-11.8,13.3-23.6,19.9-35.5
			c-17.1,13.9-31.9,27.3-44.2,40.2c-9.9,10.3-16.5,18.3-19.7,24.1c-0.4,1.1-0.8,2.2-1.3,3.3c-0.5,1.1-1.2,1.7-2.2,1.8l-1.1-0.2
			c-1.7-0.2-2.9-1.3-3.6-3.1l0.2-0.7c0.7-5.5,3.1-11.9,7.1-19.2c2.8-4.9,7.7-12.6,14.8-23c3.9-7.5,14.7-23.3,32.6-47.6
			c8.4,5.8,12.7,10.9,12.7,15.2c-2.3,0.6-4.9,2.2-7.8,4.9c-3.1,3-5.6,4.9-7.2,5.6c-0.4,1.4-1.5,3-3.5,4.5c-2,1.6-3.1,3-3.3,4.3
			c-0.6,0.6-2.2,1.6-4.7,2.9c-1.4,0.8-2.2,2.1-2.2,3.6v0.7l-0.7-0.2c-0.4,0.6-1.1,1.4-2.4,2.5l-7.6,10l1.3,1.1
			c2.9-2.4,11.7-10.1,26.4-23c9.3-8.2,16.9-14,22.8-17.4h1.8c5.3,0,10.5,3.9,15.6,11.6l0.4,2c-0.5,2.2-2.1,4-5,5.3
			c-2.8,1.4-4.6,3.3-5.3,5.7c-1.4,0.2-2.8,1.1-4.2,2.5c-1.8,1.9-3.1,3.1-4,3.6c-6.6,7-13.7,16.8-21.2,29.5l0.7,0.7
			c17.7-12.7,34.2-23.7,49.4-33.1L738,84.6z"/>
		<path class="st1" d="M799.4,69.1l-0.5,4c-12.4,11.8-30.2,36-53.2,72.6l-2.9-0.7l1.3,2.7c-1.4,1.3-3.1,2.1-4.9,2.2l-1.4,3.8
			c-1.3,0.7-3.6,2.4-6.9,5.1c-2.5,2.1-4.6,3.3-6.3,3.6c-1.4,3.6-9.2,9.1-23.2,16.5l-0.9-0.7c-2.7,1.9-5.9,3.3-9.8,4
			c-3,0.5-6,0.9-9,1.3c-1,0.1-3.6,0.7-8,1.8c-3.4,1-6.3,1.4-8.9,1.4c-17.1,0-32.2-2.7-45.1-8.1c-10.5-4.5-15.7-10-15.7-16.5V161
			l0.2-1.6c2.3,7,8.6,12.5,19,16.4c10.4,3.9,24.2,5.9,41.4,5.9c20.9,0,38.7-6.9,53.4-20.6c13.6-12.7,27.5-34.2,41.4-64.6l-0.9-0.7
			c-14.4,12.7-21.9,20.5-22.6,23.3l-4,2.5c-3.4,8-6.4,11.9-9,11.9c-2.2,0-4.8-1.5-7.8-4.4c-3-3-4.9-6.5-5.6-10.6
			c2.5-2.5,3.8-4.9,3.8-7.2v-0.7l4.7-5.2v-2.2c4.8-6.8,8.3-11.9,10.5-15.6l-0.9-1.6l5.4-4.7l-0.4-1.3c0-1.2,0.8-2.7,2.4-4.3
			c1.6-1.7,3.3-3.4,5.2-5.2c2.1-5.1,5.1-9.7,9.1-13.9c4-4.2,7.9-6.9,11.7-8.1L780.8,62c2.5-1.9,5.6-4.6,9.2-8l2.7,1.6
			C794.4,60.9,796.6,65.3,799.4,69.1z M777.3,68.7c-0.8-2.5-2.1-3.8-3.6-3.8c-0.7,0-2.8,1.8-6.3,5.2c-5.7,5.4-10.7,10-15,13.6
			l-0.7-0.2c-2.3,0.2-4.8,2.8-7.6,7.6c-2.5,1.2-5,4.9-7.4,11c-1.6,0.4-3.1,1-4.7,2c-0.8,1.9-2.3,4.8-4.3,8.5l-1.4-0.2
			c-0.1,1.6-0.9,3.6-2.4,6c-2.1,3.4-3.3,5.7-3.8,7.1l29.1-26.6c9-8.3,14.2-13.1,15.6-14.3C770.1,79.1,774.3,73.8,777.3,68.7z"/>
	</g>
</g>
</svg>
